<svg width="19" height="16" viewBox="0 0 19 16" fill="none" xmlns="http://www.w3.org/2000/svg">
<path d="M18.1383 11.7589H16.5336C16.3302 10.4001 15.1573 9.35321 13.742 9.35321C12.3267 9.35321 11.1538 10.4001 10.9504 11.7589H0.865164C0.633927 11.7589 0.447266 11.9455 0.447266 12.1766C0.447266 12.4077 0.633927 12.5943 0.865164 12.5943H10.9532C11.1566 13.953 12.3295 15 13.7448 15C15.1601 15 16.333 13.953 16.5364 12.5943H18.1411C18.3723 12.5943 18.559 12.4077 18.559 12.1766C18.559 11.9455 18.3695 11.7589 18.1383 11.7589ZM13.7448 14.1647C12.6471 14.1647 11.7556 13.2737 11.7556 12.1766C11.7556 11.0795 12.6471 10.1885 13.7448 10.1885C14.8425 10.1885 15.734 11.0795 15.734 12.1766C15.734 13.2737 14.8397 14.1647 13.7448 14.1647Z" fill="#1A1A1A" stroke="#1A1A1A" stroke-width="0.41176"/>
<path d="M16.5334 11.7589C16.33 10.4001 15.1571 9.35321 13.7418 9.35321C12.3265 9.35321 11.1536 10.4001 10.9503 11.7589C10.8771 12.2482 10.9531 12.5943 10.9531 12.5943C11.1564 13.953 12.3293 15 13.7446 15C15.1599 15 16.3328 13.953 16.5362 12.5943C16.5362 12.5943 16.6016 12.2148 16.5334 11.7589ZM13.7446 14.1647C12.6469 14.1647 11.7554 13.2737 11.7554 12.1766C11.7554 11.0795 12.6469 10.1885 13.7446 10.1885C14.8423 10.1885 15.7338 11.0795 15.7338 12.1766C15.7338 13.2737 14.8395 14.1647 13.7446 14.1647Z" fill="#1A1A1A" stroke="#1A1A1A" stroke-width="0.41176"/>
<path d="M18.138 3.40573H8.04716C7.84378 2.04694 6.67088 1 5.2556 1C3.84031 1 2.66741 2.04694 2.46403 3.40573H0.859305C0.628068 3.40573 0.441406 3.59228 0.441406 3.82339C0.441406 4.05449 0.628068 4.24105 0.859305 4.24105H2.46403C2.66741 5.59984 3.84031 6.64678 5.2556 6.64678C6.67088 6.64678 7.84378 5.59984 8.04716 4.24105H18.1352C18.3665 4.24105 18.5531 4.05449 18.5531 3.82339C18.5531 3.59228 18.3692 3.40573 18.138 3.40573ZM5.25838 5.81145C4.1607 5.81145 3.26919 4.92044 3.26919 3.82339C3.26919 2.72633 4.1607 1.83532 5.25838 1.83532C6.35606 1.83532 7.24758 2.72633 7.24758 3.82339C7.24758 4.92044 6.35606 5.81145 5.25838 5.81145Z" fill="#1A1A1A" stroke="#1A1A1A" stroke-width="0.41176"/>
<path d="M8.04716 3.40576H18.138C18.3692 3.40576 18.5531 3.59232 18.5531 3.82342C18.5531 4.05453 18.3665 4.24108 18.1352 4.24108H8.04716V3.40576Z" fill="#1A1A1A"/>
<path d="M0.859305 3.40576H2.46403V4.24108H0.859305C0.628068 4.24108 0.441406 4.05453 0.441406 3.82342C0.441406 3.59232 0.628068 3.40576 0.859305 3.40576Z" fill="#1A1A1A"/>
<path d="M8.04716 3.40576H18.138C18.3692 3.40576 18.5531 3.59232 18.5531 3.82342C18.5531 4.05453 18.3665 4.24108 18.1352 4.24108H8.04716V3.40576Z" stroke="#1A1A1A" stroke-width="0.41176"/>
<path d="M0.859305 3.40576H2.46403V4.24108H0.859305C0.628068 4.24108 0.441406 4.05453 0.441406 3.82342C0.441406 3.59232 0.628068 3.40576 0.859305 3.40576Z" stroke="#1A1A1A" stroke-width="0.41176"/>
<path d="M8.07392 3.43863C7.87054 2.07984 6.69764 1.0329 5.28236 1.0329C3.86707 1.0329 2.69417 2.07984 2.4908 3.43863C2.41763 3.92789 2.49358 4.27395 2.49358 4.27395C2.69696 5.63274 3.86986 6.67967 5.28514 6.67967C6.70043 6.67967 7.87333 5.63274 8.0767 4.27395C8.0767 4.27395 8.14215 3.89448 8.07392 3.43863ZM5.28514 5.84435C4.18746 5.84435 3.29595 4.95334 3.29595 3.85629C3.29595 2.75923 4.18746 1.86822 5.28514 1.86822C6.38282 1.86822 7.27434 2.75923 7.27434 3.85629C7.27434 4.95334 6.38004 5.84435 5.28514 5.84435Z" fill="#1A1A1A" stroke="#1A1A1A" stroke-width="0.41176"/>
</svg>
